<svg width="30" height="30" viewBox="0 0 30 30" fill="none" xmlns="http://www.w3.org/2000/svg">
<g clip-path="url(#clip0)">
<path d="M28.4258 12.9804V7.96875C28.4258 3.60686 24.8775 0 20.5156 0H13.4844C9.12248 0 5.57422 3.60686 5.57422 7.96875V12.9804C3.50322 13.9719 2 16.0707 2 18.5156C2 21.9077 4.81889 24.7266 8.21094 24.7266H9.08984V12.3633H8.21094C7.91 12.3633 7.6216 12.4102 7.33203 12.4521V8.84766H9.08984V7.96875C9.08984 5.54572 11.0605 3.57422 13.4844 3.57422H20.5156C22.9395 3.57422 24.9102 5.54572 24.9102 7.96875V8.84766H26.668V12.4521C26.3784 12.4102 26.09 12.3633 25.7891 12.3633H24.9102V24.7266H25.7891C26.09 24.7266 26.3784 24.6797 26.668 24.6377V26.4844C26.668 26.9693 26.2732 27.3633 25.7891 27.3633H20.2462C19.94 26.8473 19.4014 26.4844 18.7578 26.4844H15.2422C14.2713 26.4844 13.4844 27.2713 13.4844 28.2422C13.4844 29.2129 14.2713 30 15.2422 30H18.7578C19.4013 30 19.9399 29.637 20.2462 29.1211H25.7891C27.243 29.1211 28.4258 27.9383 28.4258 26.4844V24.1095C30.4968 23.118 32 20.9605 32 18.5156C32 16.0707 30.4968 13.9719 28.4258 12.9804Z" fill="white"/>
</g>
<defs>
<clipPath id="clip0">
<rect width="30" height="30" fill="white"/>
</clipPath>
</defs>
</svg>
