<svg width="30" height="28" viewBox="0 0 30 28" fill="none" xmlns="http://www.w3.org/2000/svg">
<g clip-path="url(#clip0)">
<path d="M7.14891 4.8749L10.6641 6.0328V10.6638C10.6641 11.1169 11.0576 11.4842 11.543 11.4842H23.2617C23.7471 11.4842 24.1406 11.1169 24.1406 10.6638V6.0328L26.4844 5.26072V8.47635C26.4844 8.92938 26.8779 9.29666 27.3633 9.29666C27.8487 9.29666 28.2422 8.92938 28.2422 8.47635V4.10135C28.2422 3.75359 28.0072 3.44356 27.6558 3.32779L17.6948 0.0465394C17.5056 -0.015859 17.2991 -0.015859 17.1098 0.0465394L7.14891 3.32779C6.79752 3.44356 6.5625 3.75359 6.5625 4.10135C6.5625 4.4491 6.79752 4.75913 7.14891 4.8749ZM22.3828 9.84353H12.4219V6.61183L17.1098 8.1561C17.2045 8.18727 17.3034 8.20285 17.4023 8.20285C17.5013 8.20285 17.6002 8.18727 17.6948 8.1561L22.3828 6.61183V9.84353ZM17.4023 1.69001L24.7225 4.10135L17.4023 6.51268L10.0822 4.10135L17.4023 1.69001Z" fill="white"/>
<path d="M28.1773 15.0163C27.0699 14.6663 25.8957 15.0003 25.1855 15.8671L21.9123 19.8621C21.9128 19.8404 21.9141 19.8188 21.9141 19.7969C21.9141 18.2891 20.5998 17.0625 18.9844 17.0625H13.17C11.3163 15.5905 8.69637 15.3286 6.5625 16.3596V16.2422C6.5625 15.7892 6.16898 15.4219 5.68359 15.4219H0.878906C0.393516 15.4219 0 15.7892 0 16.2422V27.1797C0 27.6327 0.393516 28 0.878906 28H5.68359C6.16898 28 6.5625 27.6327 6.5625 27.1797V26.3594H20.9686C23.0718 26.3594 25.0065 25.3736 26.1438 23.7223L29.5738 18.7424C29.8526 18.3377 30 17.8694 30 17.3882C30 16.2972 29.2845 15.366 28.1773 15.0163ZM4.80469 26.3594H1.75781V17.0625H4.80469V26.3594ZM28.0952 17.8553L24.6652 22.8352C23.8528 24.0146 22.4709 24.7188 20.9686 24.7188H6.5625V18.3049L6.85646 18.109C8.50523 17.0097 10.7621 17.1633 12.2228 18.4742C12.3865 18.6211 12.6049 18.7032 12.832 18.7032H18.9843C19.6305 18.7032 20.1562 19.1938 20.1562 19.7969C20.1562 20.4 19.6305 20.8907 18.9843 20.8907H12.832H12.7148C12.2295 20.8907 11.8359 21.258 11.8359 21.711C11.8359 22.164 12.2295 22.5313 12.7148 22.5313H12.832H18.9844H19.7666C21.1264 22.5313 22.4314 21.9294 23.2574 20.9213L26.5819 16.8637C26.9559 16.4072 27.4661 16.5237 27.6136 16.5703C27.7611 16.617 28.2422 16.8136 28.2422 17.3883C28.2422 17.5541 28.1914 17.7156 28.0952 17.8553Z" fill="white"/>
</g>
<defs>
<clipPath id="clip0">
<rect width="30" height="28" fill="white"/>
</clipPath>
</defs>
</svg>
