<svg width="25" height="25" viewBox="0 0 25 25" fill="none" xmlns="http://www.w3.org/2000/svg">
<path d="M9.63535 0H1.82285C0.81768 0 0 0.81768 0 1.82285V6.51035C0 7.51572 0.81768 8.3334 1.82285 8.3334H9.63535C10.6407 8.3334 11.4584 7.51572 11.4584 6.51035V1.82285C11.4584 0.81768 10.6407 0 9.63535 0Z" fill="white"/>
<path d="M9.63535 10.4166H1.82285C0.81768 10.4166 0 11.2343 0 12.2396V23.1771C0 24.1823 0.81768 25 1.82285 25H9.63535C10.6407 25 11.4584 24.1823 11.4584 23.1771V12.2396C11.4584 11.2343 10.6407 10.4166 9.63535 10.4166Z" fill="white"/>
<path d="M23.1772 16.6666H15.3647C14.3593 16.6666 13.5416 17.4843 13.5416 18.4896V23.1771C13.5416 24.1823 14.3593 25 15.3647 25H23.1772C24.1823 25 25 24.1823 25 23.1771V18.4896C25 17.4843 24.1823 16.6666 23.1772 16.6666Z" fill="white"/>
<path d="M23.1772 0H15.3647C14.3593 0 13.5416 0.81768 13.5416 1.82285V12.7604C13.5416 13.7657 14.3593 14.5834 15.3647 14.5834H23.1772C24.1823 14.5834 25 13.7657 25 12.7604V1.82285C25 0.81768 24.1823 0 23.1772 0V0Z" fill="white"/>
</svg>
