<svg width="30" height="30" viewBox="0 0 30 30" fill="none" xmlns="http://www.w3.org/2000/svg">
<path d="M17.6563 7.69049H18.4243V5.41834H15.384V8.64182C15.384 8.85358 15.2117 9.02584 15 9.02584C14.7882 9.02584 14.6159 8.85358 14.6159 8.64182V5.41834H11.5756V7.69049H12.3437V8.64182H12.3438C12.3438 10.1065 13.5354 11.298 15 11.298C16.4647 11.298 17.6563 10.1065 17.6563 8.64182V7.69049ZM17.5455 6.81158H16.7775V8.64182C16.7775 9.62186 15.9802 10.4191 15.0001 10.4191C14.0201 10.4191 13.2228 9.62186 13.2228 8.64182V6.81158H12.4548V6.29725H13.7371V8.64182C13.7371 9.33821 14.3037 9.90475 15.0001 9.90475C15.6965 9.90475 16.263 9.33821 16.263 8.64182V6.29725H17.5455V6.81158Z" fill="white"/>
<path d="M4.59961 15.6574H3.7207V16.5363H4.59961V15.6574Z" fill="white"/>
<path d="M4.59961 18.5871H3.7207V22.7666H4.59961V18.5871Z" fill="white"/>
<path d="M4.59961 17.1223H3.7207V18.0012H4.59961V17.1223Z" fill="white"/>
<path d="M11.7873 15.6574H10.9084V16.5363H11.7873V15.6574Z" fill="white"/>
<path d="M11.7873 17.1223H10.9084V18.0012H11.7873V17.1223Z" fill="white"/>
<path d="M11.7873 18.5871H10.9084V22.7666H11.7873V18.5871Z" fill="white"/>
<path d="M19.2674 18.5871H18.3885V22.7666H19.2674V18.5871Z" fill="white"/>
<path d="M19.2674 17.1223H18.3885V18.0012H19.2674V17.1223Z" fill="white"/>
<path d="M19.2674 15.6574H18.3885V16.5363H19.2674V15.6574Z" fill="white"/>
<path d="M26.5137 15.6574H25.6348V16.5363H26.5137V15.6574Z" fill="white"/>
<path d="M26.5137 17.1223H25.6348V18.0012H26.5137V17.1223Z" fill="white"/>
<path d="M26.5137 18.5871H25.6348V22.7666H26.5137V18.5871Z" fill="white"/>
<path d="M29.4434 27.1273V25.4549H28.8901L28.6016 23.4945H27.8705V14.8226H28.6016L28.8901 12.8622H29.9883L14.9998 0.321442L0.01125 12.8621H1.10994L1.3984 14.8226H2.12953V23.4944H1.3984L1.10994 25.4549H0.556641V27.1273H0V29.6786H30V27.1273H29.4434ZM28.0017 25.4549H23.8923L24.0514 24.3734H27.8425L28.0017 25.4549ZM9.345 13.9437L9.1858 12.8622H13.2952L13.1361 13.9437H9.345ZM12.2852 14.8226V23.4945H10.196V14.8226H12.2852ZM9.31711 14.8226V23.4945H8.58598L8.29746 25.4549H6.99609L6.7077 23.4945H5.97656V14.8226H6.7077L6.99615 12.8622H8.29746L8.58598 14.8226H9.31711ZM9.345 24.3734H13.1361L13.2952 25.4549H9.1858L9.345 24.3734ZM13.1641 23.4945V14.8226H13.8952L14.1837 12.8622H15.8164L16.1048 14.8226H16.836V23.4945H16.1048L15.8164 25.4549H14.1837L13.8952 23.4945H13.1641ZM16.8639 13.9437L16.7048 12.8622H20.8142L20.655 13.9437H16.8639ZM19.804 14.8226V23.4945H17.7148V14.8226H19.804ZM16.8639 24.3734H20.655L20.8142 25.4549H16.7048L16.8639 24.3734ZM20.6829 23.4945V14.8226H21.4141L21.7026 12.8622H23.0039L23.2924 14.8226H24.0234V23.4945H23.2923L23.0038 25.4549H21.7025L21.4141 23.4945H20.6829ZM24.9023 23.4945V14.8226H26.9916V23.4945H24.9023ZM27.8425 13.9437H24.0514L23.8923 12.8622H28.0017L27.8425 13.9437ZM14.9998 1.46736L27.5682 11.9832H2.43135L14.9998 1.46736ZM1.99834 12.8621H6.1077L5.94855 13.9437H2.15748L1.99834 12.8621ZM5.09766 14.8226V23.4945H3.00844V14.8226H5.09766ZM2.15748 24.3734H5.94855L6.1077 25.4549H1.99834L2.15748 24.3734ZM1.43555 26.3338H28.5645V27.1273H1.43555V26.3338ZM29.1211 28.7996H0.878906V28.0062H29.1211V28.7996Z" fill="white"/>
<path d="M14.9998 3.6368L16.6565 5.02295L17.2205 4.34889L14.9998 2.49082L12.7791 4.34889L13.3431 5.02295L14.9998 3.6368Z" fill="white"/>
<path d="M19.4387 6.20479L18.8747 6.87885L23.106 10.4191H17.5597V11.2981H25.5261L19.4387 6.20479Z" fill="white"/>
<path d="M11.1253 6.87856L10.5613 6.2045L4.47357 11.2981H12.4403V10.4191H6.89361L11.1253 6.87856Z" fill="white"/>
</svg>
