<svg width="25" height="21" viewBox="0 0 25 21" fill="none" xmlns="http://www.w3.org/2000/svg">
<path d="M22.8222 10.6343V5.3311H23.3476C23.5412 5.3311 23.7162 5.22398 23.8042 5.05156C23.8923 4.87915 23.8765 4.67466 23.763 4.51797L22.0659 2.17109C21.9703 2.03887 21.8158 1.95947 21.6526 1.95879C21.6519 1.95879 21.6512 1.95879 21.6504 1.95879C21.488 1.95879 21.3338 2.03677 21.2375 2.16768L19.5108 4.51455C19.3956 4.67119 19.3785 4.87627 19.4662 5.04976C19.554 5.22329 19.7293 5.3311 19.9237 5.3311H20.4808V6.68897C20.4808 6.89121 20.6447 7.05518 20.847 7.05518C21.0493 7.05518 21.2132 6.89121 21.2132 6.68897V5.11138C21.2132 4.82866 20.9832 4.59868 20.7005 4.59868H20.3582L21.6489 2.84429L22.9175 4.59868H22.6024C22.3197 4.59868 22.0897 4.82866 22.0897 5.11138V10.1376C21.8112 9.97852 21.5182 9.84185 21.2132 9.73042V8.39795C21.2132 8.1957 21.0493 8.03174 20.847 8.03174C20.6447 8.03174 20.4808 8.1957 20.4808 8.39795V9.51743C20.0818 9.42964 19.6677 9.38296 19.2428 9.38296C19.1588 9.38296 19.0754 9.38525 18.9923 9.38882V1.41079C18.9923 0.939649 18.609 0.556299 18.1378 0.556299H16.7236V0.366211C16.7236 0.163965 16.5597 0 16.3574 0C16.1551 0 15.9912 0.163965 15.9912 0.366211V0.556299H14.7633V0.366211C14.7633 0.163965 14.5994 0 14.3971 0C14.1948 0 14.0309 0.163965 14.0309 0.366211V0.556299H12.8029V0.366211C12.8029 0.163965 12.639 0 12.4367 0C12.2344 0 12.0705 0.163965 12.0705 0.366211V0.556299H10.8426V0.366211C10.8426 0.163965 10.6787 0 10.4764 0C10.2741 0 10.1102 0.163965 10.1102 0.366211V0.556299H8.88228V0.366211C8.88228 0.163965 8.71836 0 8.51606 0C8.31377 0 8.14985 0.163965 8.14985 0.366211V0.556299H6.92192V0.366211C6.92192 0.163965 6.75801 0 6.55571 0C6.35342 0 6.1895 0.163965 6.1895 0.366211V0.556299H4.96143V0.366211C4.96143 0.163965 4.79751 0 4.59521 0C4.39292 0 4.229 0.163965 4.229 0.366211V0.556299H3.00112V0.366211C3.00112 0.163965 2.83721 0 2.63491 0C2.43262 0 2.2687 0.163965 2.2687 0.366211V0.556299H0.854492C0.38335 0.556299 0 0.939649 0 1.41079V18.3712C0 18.8423 0.38335 19.2257 0.854492 19.2257H15.1905C16.2317 20.2584 17.6639 20.8974 19.2428 20.8974C20.4706 20.8974 21.6425 20.5159 22.6321 19.794C22.7956 19.6748 22.8313 19.4457 22.7122 19.2823C22.593 19.1189 22.3638 19.0831 22.2005 19.2023C21.3371 19.8321 20.3144 20.165 19.2428 20.165C16.4721 20.165 14.218 17.9108 14.218 15.1402C14.218 12.3695 16.4721 10.1154 19.2428 10.1154C22.0135 10.1154 24.2676 12.3695 24.2676 15.1402C24.2676 16.2003 23.9412 17.2142 23.3238 18.072C23.2056 18.2362 23.2429 18.465 23.407 18.5832C23.5712 18.7014 23.8001 18.6641 23.9182 18.4999C24.6259 17.5167 25 16.3549 25 15.1402C25 13.3174 24.1483 11.69 22.8222 10.6343ZM0.732422 18.3712V4.1002H3.80859C4.01089 4.1002 4.1748 3.93623 4.1748 3.73398C4.1748 3.53174 4.01089 3.36777 3.80859 3.36777H0.732422V1.41079C0.732422 1.34351 0.787158 1.28872 0.854492 1.28872H2.2687V1.90796C2.2687 2.11021 2.43262 2.27417 2.63491 2.27417C2.83721 2.27417 3.00112 2.11021 3.00112 1.90796V1.28872H4.229V1.90796C4.229 2.11021 4.39292 2.27417 4.59521 2.27417C4.79751 2.27417 4.96143 2.11021 4.96143 1.90796V1.28872H6.18936V1.90796C6.18936 2.11021 6.35327 2.27417 6.55557 2.27417C6.75786 2.27417 6.92178 2.11021 6.92178 1.90796V1.28872H8.14971V1.90796C8.14971 2.11021 8.31362 2.27417 8.51592 2.27417C8.71821 2.27417 8.88213 2.11021 8.88213 1.90796V1.28872H10.1101V1.90796C10.1101 2.11021 10.274 2.27417 10.4763 2.27417C10.6786 2.27417 10.8425 2.11021 10.8425 1.90796V1.28872H12.0704V1.90796C12.0704 2.11021 12.2343 2.27417 12.4366 2.27417C12.6389 2.27417 12.8028 2.11021 12.8028 1.90796V1.28872H14.0307V1.90796C14.0307 2.11021 14.1946 2.27417 14.3969 2.27417C14.5992 2.27417 14.7631 2.11021 14.7631 1.90796V1.28872H15.9912V1.90796C15.9912 2.11021 16.1551 2.27417 16.3574 2.27417C16.5597 2.27417 16.7236 2.11021 16.7236 1.90796V1.28872H18.1378C18.2052 1.28872 18.2599 1.34351 18.2599 1.41079V3.36777H5.51758C5.31528 3.36777 5.15137 3.53174 5.15137 3.73398C5.15137 3.93623 5.31528 4.1002 5.51758 4.1002H18.2599V9.46802C18.0155 9.51025 17.776 9.56704 17.5431 9.63911V5.45142C17.5431 5.10156 17.2585 4.81694 16.9086 4.81694H2.08364C1.73384 4.81694 1.44922 5.10156 1.44922 5.45142V13.842C1.44922 14.1918 1.73384 14.4764 2.08364 14.4764H13.524C13.4989 14.6943 13.4855 14.9157 13.4855 15.1402C13.4855 15.4307 13.5074 15.7162 13.5491 15.9953H12.8612C12.7167 15.5402 12.2902 15.2095 11.7879 15.2095C11.2856 15.2095 10.8592 15.5402 10.7147 15.9953H8.27773C8.1332 15.5402 7.70679 15.2095 7.20449 15.2095C6.7022 15.2095 6.27573 15.5402 6.13125 15.9953H3.64834C3.50381 15.5402 3.07739 15.2095 2.5751 15.2095C1.9543 15.2095 1.44922 15.7146 1.44922 16.3354C1.44922 16.9562 1.9543 17.4612 2.5751 17.4612C3.05791 17.4612 3.47065 17.1557 3.63027 16.7278H6.14922C6.30889 17.1557 6.72158 17.4612 7.20439 17.4612C7.68721 17.4612 8.09995 17.1557 8.25957 16.7278H10.7327C10.8924 17.1557 11.3051 17.4612 11.7879 17.4612C12.2707 17.4612 12.6834 17.1557 12.8431 16.7278H13.7083C13.8924 17.3689 14.1854 17.9645 14.5656 18.4933H0.854492C0.787158 18.4933 0.732422 18.4385 0.732422 18.3712ZM14.8549 9.28047V7.69419H16.8107V9.28047H14.8549ZM9.12993 9.28047H7.36611V7.69419H9.12993V9.28047ZM9.86235 7.69419H11.6262V9.28047H9.86235V7.69419ZM6.63369 9.28047H4.86987V7.69419H6.63369V9.28047ZM4.13745 9.28047H2.18164V7.69419H4.1375V9.28047H4.13745ZM2.18164 10.0129H4.1375V11.5992H2.18164V10.0129ZM4.86987 10.0129H6.63369V11.5992H4.86987V10.0129ZM7.36611 10.0129H9.12993V11.5992H7.36611V10.0129ZM9.86235 10.0129H11.6262V11.5992H9.86235V10.0129ZM12.3586 10.0129H14.1224V11.5992H12.3586V10.0129ZM12.3586 9.28047V7.69419H14.1224V9.28047H12.3586ZM16.8107 6.96177H14.8548V5.54937H16.8107V6.96177ZM14.1225 6.96177H12.3586V5.54937H14.1225V6.96177ZM11.6262 6.96177H9.86235V5.54937H11.6262V6.96177ZM9.12993 6.96177H7.36611V5.54937H9.12993V6.96177ZM6.63369 6.96177H4.86987V5.54937H6.63369V6.96177ZM4.13745 6.96177H2.18164V5.54937H4.1375V6.96177H4.13745ZM2.18164 12.3316H4.1375V13.744H2.18164V12.3316ZM4.86987 12.3316H6.63369V13.744H4.86987V12.3316ZM7.36611 12.3316H9.12993V13.744H7.36611V12.3316ZM9.86235 12.3316H11.6262V13.744H9.86235V12.3316ZM12.3586 12.3316H14.1224V12.511C13.9226 12.8987 13.7652 13.3117 13.657 13.744H12.3585V12.3316H12.3586ZM14.8549 11.4183V10.0129H16.6276C15.9474 10.3612 15.3454 10.8409 14.8549 11.4183ZM12.1813 16.3354C12.1813 16.5523 12.0049 16.7288 11.7879 16.7288C11.5709 16.7288 11.3944 16.5523 11.3944 16.3354C11.3944 16.1184 11.5709 15.9419 11.7879 15.9419C12.0049 15.9419 12.1813 16.1184 12.1813 16.3354ZM7.59785 16.3354C7.59785 16.5523 7.42139 16.7288 7.20439 16.7288C6.9874 16.7288 6.81094 16.5523 6.81094 16.3354C6.81094 16.1184 6.9874 15.9419 7.20439 15.9419C7.42139 15.9419 7.59785 16.1184 7.59785 16.3354ZM2.96851 16.3354C2.96851 16.5523 2.79204 16.7288 2.57505 16.7288C2.35806 16.7288 2.18164 16.5522 2.18164 16.3354C2.18164 16.1185 2.35811 15.9419 2.5751 15.9419C2.79209 15.9419 2.96851 16.1184 2.96851 16.3354Z" fill="white"/>
</svg>
