<svg width="30" height="30" viewBox="0 0 30 30" fill="none" xmlns="http://www.w3.org/2000/svg">
<path d="M25.3104 25.5078C25.2564 22.0511 24.1795 18.908 22.2649 16.6324C20.3613 14.3706 17.7816 13.125 15 13.125C12.2184 13.125 9.63866 14.3706 7.73513 16.6324C5.82228 18.9056 4.74608 22.0443 4.68983 25.4967C5.77148 26.0385 10.2475 28.125 15 28.125C20.1391 28.125 24.3073 26.0508 25.3104 25.5078Z" fill="white"/>
<path d="M15 12.1875C17.8477 12.1875 20.1562 9.87897 20.1562 7.03125C20.1562 4.18353 17.8477 1.875 15 1.875C12.1523 1.875 9.84375 4.18353 9.84375 7.03125C9.84375 9.87897 12.1523 12.1875 15 12.1875Z" fill="white"/>
</svg>
