<svg width="60" height="60" viewBox="0 0 60 60" fill="none" xmlns="http://www.w3.org/2000/svg">
<g filter="url(#filter0_b)">
<circle cx="30" cy="30" r="30" fill="#250F64"/>
</g>
<path d="M29.5048 23.567C25.6764 23.567 22.577 26.6697 22.577 30.4946C22.577 34.3229 25.6798 37.4222 29.5048 37.4222C33.3331 37.4222 36.4325 34.3195 36.4325 30.4946C36.4325 26.6663 33.3298 23.567 29.5048 23.567ZM29.5048 34.9911C27.0196 34.9911 25.0081 32.9786 25.0081 30.4946C25.0081 28.0106 27.0208 25.998 29.5048 25.998C31.9888 25.998 34.0014 28.0106 34.0014 30.4946C34.0025 32.9786 31.9899 34.9911 29.5048 34.9911Z" fill="white"/>
<g filter="url(#filter1_d)">
<path d="M35.0668 17.0848C32.5828 16.9689 26.4301 16.9746 23.9439 17.0848C21.7591 17.1872 19.832 17.7148 18.2784 19.2684C15.6819 21.8649 16.0138 25.3635 16.0138 30.4946C16.0138 35.746 15.7213 39.1637 18.2784 41.7208C20.885 44.3262 24.4344 43.9853 29.5048 43.9853C34.7068 43.9853 36.5023 43.9887 38.3416 43.2766C40.8425 42.3057 42.7303 40.0704 42.9148 36.0553C43.0318 33.5703 43.025 27.4189 42.9148 24.9327C42.692 20.1931 40.1484 17.3188 35.0668 17.0848ZM38.9986 40.0029C37.2965 41.705 34.9351 41.5531 29.4721 41.5531C23.8471 41.5531 21.5915 41.6364 19.9456 39.986C18.05 38.0994 18.3931 35.0699 18.3931 30.4766C18.3931 24.2611 17.7553 19.7848 23.9934 19.4653C25.4266 19.4146 25.8485 19.3978 29.4564 19.3978L29.507 19.4315C35.5021 19.4315 40.2058 18.8038 40.4881 25.0407C40.5523 26.4638 40.5669 26.8913 40.5669 30.4934C40.5658 36.0531 40.6715 38.3222 38.9986 40.0029Z" fill="white"/>
</g>
<path d="M36.707 24.9124C37.6011 24.9124 38.3259 24.1876 38.3259 23.2936C38.3259 22.3995 37.6011 21.6747 36.707 21.6747C35.8129 21.6747 35.0881 22.3995 35.0881 23.2936C35.0881 24.1876 35.8129 24.9124 36.707 24.9124Z" fill="white"/>
<defs>
<filter id="filter0_b" x="-4" y="-4" width="68" height="68" filterUnits="userSpaceOnUse" color-interpolation-filters="sRGB">
<feFlood flood-opacity="0" result="BackgroundImageFix"/>
<feGaussianBlur in="BackgroundImage" stdDeviation="2"/>
<feComposite in2="SourceAlpha" operator="in" result="effect1_backgroundBlur"/>
<feBlend mode="normal" in="SourceGraphic" in2="effect1_backgroundBlur" result="shape"/>
</filter>
<filter id="filter1_d" x="12" y="17" width="35" height="35" filterUnits="userSpaceOnUse" color-interpolation-filters="sRGB">
<feFlood flood-opacity="0" result="BackgroundImageFix"/>
<feColorMatrix in="SourceAlpha" type="matrix" values="0 0 0 0 0 0 0 0 0 0 0 0 0 0 0 0 0 0 127 0"/>
<feOffset dy="4"/>
<feGaussianBlur stdDeviation="2"/>
<feColorMatrix type="matrix" values="0 0 0 0 0 0 0 0 0 0 0 0 0 0 0 0 0 0 0.25 0"/>
<feBlend mode="normal" in2="BackgroundImageFix" result="effect1_dropShadow"/>
<feBlend mode="normal" in="SourceGraphic" in2="effect1_dropShadow" result="shape"/>
</filter>
</defs>
</svg>
