<svg width="25" height="25" viewBox="0 0 25 25" fill="none" xmlns="http://www.w3.org/2000/svg">
<path d="M21.7171 13.8191C21.7171 13.4422 21.8427 13.0653 21.8427 12.5628C21.8427 12.0603 21.8427 11.6834 21.7171 11.3065L24.3553 9.17085C24.6065 8.9196 24.6065 8.66834 24.4809 8.41709L21.9683 4.0201C21.8427 3.89447 21.5915 3.76884 21.2146 3.89447L18.0739 5.15075C17.4457 4.64824 16.692 4.27136 15.9382 3.89447L15.4357 0.628141C15.5613 0.251256 15.1844 0 14.9332 0H9.90805C9.65674 0 9.27991 0.251256 9.27991 0.502513L8.7774 3.89447C8.02363 4.14573 7.39549 4.64824 6.64172 5.15075L3.62665 3.89447C3.24977 3.76884 2.99851 3.89447 2.74721 4.14573L0.234648 8.54271C0.10902 8.66834 0.234648 9.04523 0.485904 9.29648L3.12409 11.3065C3.12409 11.6834 2.99846 12.0603 2.99846 12.5628C2.99846 13.0653 2.99846 13.4422 3.12409 13.8191L0.485904 15.9548C0.234648 16.2061 0.234648 16.4573 0.360276 16.7086L2.87283 21.1056C2.99846 21.2312 3.24967 21.3568 3.6266 21.2312L6.7673 19.9749C7.39544 20.4774 8.14921 20.8543 8.90297 21.2312L9.40549 24.4975C9.40549 24.7488 9.65674 25 10.0336 25H15.0587C15.31 25 15.6869 24.7487 15.6869 24.4975L16.1894 21.2312C16.9432 20.8543 17.6969 20.4774 18.3251 19.9749L21.4658 21.2312C21.7171 21.3568 22.0939 21.2312 22.2196 20.9799L24.7321 16.5829C24.8578 16.3317 24.8578 15.9548 24.6065 15.8291L21.7171 13.8191ZM12.4206 16.9598C10.0337 16.9598 8.02363 14.9497 8.02363 12.5628C8.02363 10.1759 10.0337 8.16583 12.4206 8.16583C14.8075 8.16583 16.8176 10.1759 16.8176 12.5628C16.8176 14.9497 14.8075 16.9598 12.4206 16.9598Z" fill="white"/>
</svg>
