<svg width="25" height="23" viewBox="0 0 25 23" fill="none" xmlns="http://www.w3.org/2000/svg">
<path d="M24.9882 17.9912L24.8929 17.4765C24.8321 17.1476 24.5449 16.9088 24.21 16.9088C24.1679 16.9088 24.1255 16.9127 24.0838 16.9204L22.1424 17.277L23.0216 16.6893C23.2521 16.5353 23.3685 16.2598 23.3183 15.9865C23.3043 15.9116 23.2781 15.8398 23.2402 15.7726L22.9742 15.3014C22.883 15.1396 22.7275 15.0193 22.5481 14.9717C22.4602 14.9482 22.3683 14.943 22.2787 14.9547C22.3766 14.4143 22.4271 13.8625 22.4271 13.3007C22.4271 13.0514 22.2772 12.8369 22.063 12.7417C22.3428 12.0763 22.3619 11.3144 22.0854 10.6168C22.063 10.56 22.0296 10.5094 21.9865 10.4662C21.9438 10.4235 21.8937 10.3904 21.8369 10.3676C21.5055 10.2356 21.1572 10.1687 20.8017 10.1687C20.7563 10.1687 20.711 10.1699 20.6659 10.1721C20.6152 9.14994 19.7692 8.33398 18.7365 8.33398C18.6005 8.33398 18.4679 8.34843 18.3398 8.37539C18.4288 7.84316 18.3764 7.28638 18.1691 6.76363C18.1469 6.70615 18.1134 6.65459 18.0679 6.6084C18.0242 6.56465 17.9729 6.53091 17.9159 6.5083C17.559 6.36612 17.1838 6.29405 16.8008 6.29405C16.2238 6.29405 15.6719 6.45625 15.1954 6.75781C15.0214 6.25357 14.7343 5.78018 14.3332 5.37818C14.2158 5.26051 14.0595 5.19566 13.8933 5.19566C13.727 5.19566 13.5707 5.26051 13.4531 5.37828L11.68 7.15542C11.3519 6.86275 10.9201 6.6878 10.4515 6.6878C10.3451 6.6878 10.2378 6.69712 10.1323 6.71548C9.75035 6.78198 9.39884 6.96895 9.12936 7.24277C8.7838 7.07603 8.38795 7.01914 8.00754 7.08535C7.92385 7.0999 7.84264 7.12041 7.76384 7.14541V5.77598C7.76384 4.83292 7.00588 4.06432 6.06829 4.04811V3.27145C6.3553 3.22179 6.57444 2.97165 6.57444 2.67067V0.910963C6.57444 0.574441 6.30066 0.300613 5.96409 0.300613H2.98602C2.64945 0.300613 2.37567 0.574441 2.37567 0.910963V2.67067C2.37567 2.97165 2.59481 3.22179 2.88182 3.27145V4.04801C1.94423 4.06417 1.18632 4.83277 1.18632 5.77588V16.4641C0.455174 17.1244 0 18.0458 0 19.0646C0 21.0688 1.75903 22.6994 3.92122 22.6994L18.5787 22.6951C19.079 22.6949 19.5495 22.475 19.8695 22.0919C20.1813 21.7189 20.3137 21.2345 20.2374 20.7568L23.165 21.2829C23.2055 21.2902 23.247 21.2939 23.2882 21.2939C23.4342 21.2939 23.5741 21.2491 23.6925 21.1644C23.8448 21.0556 23.9479 20.8872 23.9754 20.7025L24.0547 20.1704C24.0661 20.0942 24.0648 20.0174 24.0509 19.9422C24.0005 19.6701 23.7934 19.4542 23.5231 19.3923L22.4912 19.1556L24.4307 18.7993C24.6136 18.7657 24.7723 18.663 24.8776 18.5102C24.9827 18.3577 25.0219 18.1734 24.9882 17.9912ZM20.8017 10.9011C21.0222 10.9011 21.2389 10.936 21.4473 11.0048C21.6336 11.5719 21.5638 12.1835 21.2722 12.6888H20.2857L20.6005 12.3733C20.7434 12.2301 20.7431 11.9982 20.5999 11.8554C20.4567 11.7125 20.2248 11.7127 20.082 11.8559L19.9154 12.0229C19.8374 11.7658 19.701 11.5356 19.5218 11.3468C19.8853 11.0582 20.3315 10.9011 20.8017 10.9011ZM18.7365 9.0663C19.3979 9.0663 19.9359 9.60595 19.9359 10.2693C19.9359 10.2816 19.9353 10.2937 19.935 10.3059C19.5489 10.4315 19.1931 10.6412 18.8897 10.926C18.8414 10.9077 18.7924 10.8907 18.7421 10.8768C18.635 10.2981 18.245 9.83422 17.7298 9.61757C17.9436 9.28632 18.3146 9.0663 18.7365 9.0663ZM16.8007 7.02637C17.0494 7.02637 17.2939 7.0666 17.5294 7.14619C17.7187 7.70908 17.6801 8.31372 17.4388 8.83745C17.2406 9.01806 17.0797 9.23925 16.9697 9.48788C16.9043 9.49169 16.8389 9.49892 16.7743 9.51015C16.4874 9.5601 16.2198 9.68461 15.9959 9.86518C15.9195 9.72553 15.826 9.59667 15.7189 9.48066L16.5587 8.63896C16.7015 8.4958 16.7013 8.26391 16.558 8.12109C16.4149 7.97822 16.183 7.97846 16.0401 8.12168L15.1223 9.04164C14.9476 8.95908 14.7588 8.90165 14.5604 8.8748C14.6461 8.43779 14.8582 8.02602 15.1862 7.69722C15.6178 7.2646 16.1912 7.02637 16.8007 7.02637ZM13.9946 12.6888H13.6771C13.6237 12.5528 13.4915 12.4563 13.3365 12.4563C13.1814 12.4563 13.0493 12.5528 12.9958 12.6888H12.6224C12.7091 12.5476 12.6916 12.3605 12.5691 12.2383C12.426 12.0954 12.1941 12.0957 12.0512 12.2388L11.7061 12.5847C11.6751 12.6158 11.6512 12.6512 11.6337 12.6888H10.8883C10.6092 12.2604 10.4388 11.7548 10.4187 11.2109H16.2285C16.2083 11.7548 16.038 12.2604 15.7588 12.6888H14.9832C14.9657 12.6512 14.9418 12.6158 14.9108 12.5847L14.5657 12.2388C14.4228 12.0957 14.191 12.0953 14.0478 12.2382C13.9253 12.3604 13.9078 12.5475 13.9946 12.6888ZM13.1429 10.4785C13.2809 9.96688 13.7476 9.58939 14.3006 9.58939C14.8537 9.58939 15.3203 9.96693 15.4583 10.4785H13.1429ZM13.8917 5.97549C14.2401 6.35196 14.4704 6.79893 14.5833 7.26875C14.3964 7.47192 14.2411 7.69643 14.1185 7.93535C14.0629 7.90127 13.9977 7.8813 13.9278 7.8813H13.4398C13.2375 7.8813 13.0736 8.04526 13.0736 8.24751C13.0736 8.44975 13.2375 8.61372 13.4398 8.61372H13.8679C13.8438 8.71484 13.8251 8.81718 13.8115 8.92031C13.6661 8.95849 13.5272 9.01288 13.3973 9.08212C13.1532 8.66088 12.749 8.34697 12.2701 8.22104C12.2699 8.22002 12.2697 8.21899 12.2695 8.21797C12.2408 8.05224 12.1907 7.89502 12.1224 7.74887L13.8917 5.97549ZM7.27175 9.27997C7.25026 9.21991 7.234 9.15829 7.22331 9.09648C7.11828 8.49096 7.52648 7.91245 8.13307 7.80683C8.19704 7.7957 8.26203 7.79004 8.32619 7.79004C8.56745 7.79004 8.79801 7.86699 8.99288 8.01255C9.0735 8.0728 9.17545 8.09716 9.27467 8.07998C9.37389 8.06274 9.46163 8.00547 9.5173 7.92153C9.68922 7.66221 9.95226 7.49014 10.2579 7.43691C10.322 7.42573 10.3872 7.42012 10.4515 7.42012C10.994 7.42012 11.4552 7.8083 11.5479 8.34321C11.5585 8.40449 11.564 8.46836 11.5641 8.53305C11.5644 8.7226 11.7094 8.88061 11.8982 8.89721C12.3077 8.9332 12.6562 9.19086 12.8178 9.55385C12.6015 9.81347 12.4515 10.1305 12.3946 10.4785H10.3061C10.0464 10.4785 9.82364 10.6388 9.73072 10.8656C9.27125 10.5527 8.72975 10.3841 8.16227 10.3841C7.80676 10.3841 7.45847 10.451 7.12683 10.583C7.07058 10.6055 7.02028 10.6387 6.97741 10.6815C6.93396 10.725 6.90061 10.7759 6.87873 10.8318C6.79446 11.0443 6.73826 11.2628 6.70788 11.4827C6.57663 11.3333 6.48415 11.1475 6.44802 10.939C6.36189 10.4421 6.62199 9.9474 7.08034 9.73588C7.25261 9.65639 7.33566 9.45854 7.27175 9.27997ZM8.36344 12.5887L8.46335 12.6888H7.58381C7.38635 12.2307 7.35637 11.7093 7.51667 11.2202C7.72536 11.1513 7.94201 11.1164 8.16227 11.1164C8.71408 11.1164 9.23317 11.3321 9.62384 11.7237C9.67579 11.7758 9.72418 11.8304 9.76964 11.8867C9.8317 12.1677 9.92706 12.4361 10.0499 12.6887H9.49801L8.88195 12.0713C8.73903 11.9282 8.50714 11.9278 8.36408 12.0707C8.22087 12.2136 8.22057 12.4455 8.36344 12.5887ZM6.80388 12.6888H5.49837C5.55657 12.3341 5.76995 12.0317 6.06614 11.8534C6.24148 12.0883 6.47034 12.2782 6.73401 12.4069C6.75266 12.5019 6.77556 12.5961 6.80388 12.6888ZM3.10809 1.03303H5.84202V2.5486H3.10809V1.03303ZM5.33587 3.28102V4.04728H3.61429V3.28102H5.33587ZM1.91879 7.26103H4.29686C4.49915 7.26103 4.66307 7.09707 4.66307 6.89483C4.66307 6.69258 4.49915 6.52862 4.29686 6.52862H1.91879V5.77588C1.91879 5.22657 2.3643 4.7797 2.9119 4.7797H6.03826C6.58591 4.7797 7.03142 5.22657 7.03142 5.77588V6.52862H6.34763C6.14534 6.52862 5.98142 6.69258 5.98142 6.89483C5.98142 7.09707 6.14534 7.26103 6.34763 7.26103H7.03142V7.58608C6.61184 7.99746 6.39392 8.60073 6.50154 9.22128C6.50173 9.2225 6.50198 9.22377 6.50217 9.22504C5.91467 9.62812 5.60164 10.3447 5.7263 11.0641C5.73357 11.1061 5.7427 11.1474 5.75266 11.1883C5.5697 11.2891 5.4054 11.4194 5.26458 11.5719H1.91879V7.26103ZM1.91874 12.3042H4.83934C4.80047 12.4277 4.77303 12.5561 4.75965 12.6888H4.69793C4.36087 12.6888 4.08661 12.9633 4.08661 13.3006C4.08661 13.8821 4.14066 14.4529 4.24539 15.0114C4.14017 15.003 4.03226 14.9985 3.92249 14.9985C3.47962 14.9985 3.05765 15.0687 2.73446 15.1964C2.24008 15.3916 2.10341 15.6688 2.07358 15.8606C2.02118 15.8866 1.96972 15.9142 1.91874 15.9423V12.3042ZM6.55598 16.803C6.68786 16.9085 6.76848 16.9982 6.81521 17.0629C6.81081 17.063 6.80622 17.063 6.80158 17.063C6.59431 17.063 6.2219 16.9795 5.79841 16.745C5.64075 16.6577 5.49549 16.559 5.3783 16.4597C5.24168 16.344 5.04134 16.3441 4.90481 16.4598C4.78763 16.5591 4.64241 16.6578 4.48489 16.7449C4.06131 16.9795 3.6889 17.063 3.48168 17.063C3.47694 17.063 3.4724 17.063 3.46796 17.0629C3.51463 16.9982 3.59525 16.9085 3.72718 16.8029C3.84247 16.7106 3.89105 16.5581 3.85038 16.4161C3.80965 16.2741 3.68768 16.1705 3.54095 16.1533C3.18358 16.1114 2.95761 16.0204 2.8518 15.9542C2.98436 15.8716 3.31952 15.7309 3.92264 15.7309C4.42215 15.7309 4.78724 15.8359 4.96233 15.9342C5.07371 15.9967 5.2095 15.9967 5.32088 15.9343C5.49607 15.836 5.86121 15.7309 6.36072 15.7309C6.96389 15.7309 7.29899 15.8717 7.43151 15.9543C7.32575 16.0205 7.09973 16.1114 6.74226 16.1533C6.59553 16.1706 6.47351 16.2742 6.43284 16.4162C6.39202 16.5582 6.4406 16.7108 6.55598 16.803ZM5.82341 21.2603L5.83601 21.3282C5.87957 21.5634 5.97141 21.7792 6.09973 21.9669H3.92122C2.16293 21.9669 0.732419 20.665 0.732419 19.0646C0.732419 17.9709 1.40078 17.017 2.38495 16.5224C2.49799 16.6067 2.63891 16.6795 2.80609 16.7382C2.73978 16.8514 2.69359 16.9732 2.6827 17.1002C2.66825 17.2691 2.71991 17.4294 2.82831 17.5518C2.97152 17.7135 3.19134 17.7955 3.48168 17.7955C3.86859 17.7955 4.37625 17.6423 4.83963 17.3857C4.94632 17.3267 5.0472 17.2644 5.14163 17.1992C5.23601 17.2643 5.33689 17.3267 5.44363 17.3858C5.90701 17.6423 6.41467 17.7954 6.80158 17.7955H6.80163C7.09187 17.7955 7.31169 17.7135 7.45485 17.5518C7.5633 17.4295 7.61501 17.2691 7.60051 17.1002C7.58962 16.9732 7.54343 16.8514 7.47712 16.7382C7.64431 16.6795 7.78527 16.6067 7.89831 16.5224C8.67882 16.9147 9.26041 17.5959 9.46778 18.4065L6.87771 19.3905C6.11956 19.6786 5.67615 20.4649 5.82341 21.2603ZM19.3074 21.6223C19.1269 21.8385 18.8611 21.9625 18.5784 21.9626L18.194 21.9628L17.9539 20.6662C17.917 20.4673 17.7261 20.3358 17.5271 20.3728C17.3283 20.4096 17.1969 20.6006 17.2337 20.7995L17.4492 21.963L16.1891 21.9635L16.0268 21.0867C15.9899 20.8878 15.7989 20.7565 15.6 20.7933C15.4012 20.8301 15.2698 21.0212 15.3066 21.2201L15.4443 21.9638L12.5134 21.9649L12.2928 20.7741C12.2559 20.5752 12.0649 20.4439 11.866 20.4808C11.6671 20.5176 11.5357 20.7087 11.5726 20.9076L11.7685 21.9652L7.48903 21.9669C7.48894 21.9669 7.48884 21.9669 7.48874 21.9669C7.03112 21.9669 6.63894 21.6422 6.55603 21.1946L6.54343 21.1268C6.46067 20.6797 6.71057 20.2374 7.13767 20.0751L8.57697 19.5284L8.68419 20.1071C8.71686 20.2834 8.87077 20.4066 9.04381 20.4066C9.06598 20.4066 9.08844 20.4046 9.111 20.4004C9.30983 20.3636 9.44117 20.1725 9.40431 19.9736L9.27281 19.264L11.4093 18.4524C11.5983 18.3806 11.6934 18.169 11.6216 17.98C11.5498 17.7909 11.338 17.6959 11.1492 17.7677L10.155 18.1454C9.87613 17.1579 9.15963 16.3331 8.20949 15.8605C8.17966 15.6687 8.04299 15.3915 7.54865 15.1963C7.22546 15.0687 6.80349 14.9984 6.36062 14.9984C6.05584 14.9984 5.76477 15.032 5.50784 15.0933V14.8721C5.50784 14.6699 5.34392 14.5059 5.14163 14.5059C5.05613 14.5059 4.97771 14.5354 4.91536 14.5845C4.8576 14.2026 4.82527 13.8146 4.8199 13.4211H16.748C16.9503 13.4211 17.1142 13.2572 17.1142 13.0549C17.1142 12.8527 16.9503 12.6887 16.748 12.6887H16.5981C16.8313 12.2084 16.9631 11.67 16.9631 11.1009C16.9631 10.7778 16.7159 10.5116 16.4008 10.4814C16.538 10.352 16.7092 10.2648 16.9 10.2316C16.9559 10.2219 17.0126 10.2169 17.0687 10.2169C17.5415 10.2169 17.9432 10.5552 18.024 11.0211C18.0333 11.075 18.0381 11.1307 18.0381 11.1866C18.0384 11.3763 18.1834 11.5344 18.3723 11.551C18.8099 11.5894 19.168 11.9185 19.243 12.3513C19.263 12.4664 19.2605 12.58 19.2405 12.6887H18.8476C18.6453 12.6887 18.4814 12.8527 18.4814 13.0549C18.4814 13.2572 18.6453 13.4211 18.8476 13.4211H21.6939C21.6848 14.0929 21.5983 14.7491 21.4369 15.3858L19.4522 16.5573C19.3308 16.1349 19.0487 15.7765 18.66 15.559C18.224 15.315 17.7059 15.2768 17.2386 15.4543L13.1512 17.0071C12.9621 17.079 12.867 17.2905 12.9389 17.4795C13.0107 17.6687 13.2224 17.7636 13.4112 17.6919L13.9497 17.4873L14.1169 18.39C14.1496 18.5663 14.3035 18.6896 14.4766 18.6896C14.4987 18.6896 14.5211 18.6876 14.5437 18.6834C14.7425 18.6466 14.8739 18.4555 14.8371 18.2566L14.6456 17.223L17.4986 16.1391C17.763 16.0387 18.0558 16.0603 18.3023 16.1982C18.5483 16.3359 18.7187 16.5732 18.7698 16.8491L19.5107 20.8489C19.5618 21.1247 19.4877 21.4066 19.3074 21.6223ZM20.6141 18.7558C20.4432 18.7872 20.318 18.9343 20.3141 19.108C20.3103 19.2816 20.4291 19.4341 20.5984 19.4729L23.3249 20.0983L23.2568 20.5553L20.096 19.9873L19.6019 17.3196L22.355 15.6944L22.5843 16.1005L20.2622 17.6528C20.1178 17.7493 20.0611 17.934 20.1264 18.0949C20.1917 18.2559 20.3611 18.3488 20.5319 18.3174L24.1796 17.6474L24.2609 18.0858L20.6141 18.7558Z" fill="white"/>
</svg>
