<svg width="60" height="60" viewBox="0 0 60 60" fill="none" xmlns="http://www.w3.org/2000/svg">
<circle cx="30" cy="30" r="30" fill="#250F64"/>
<path d="M45.3 20.5948C43.3751 20.6835 43.4171 20.6762 43.1996 20.6944L44.3395 17.4388C44.3395 17.4388 40.7812 18.7479 39.8791 18.982C37.5099 16.8526 33.9884 16.7585 31.4708 18.3059C29.4091 19.5734 28.3025 21.7499 28.6716 24.2939C24.6591 23.7371 21.2784 21.8351 18.6093 18.6288L17.7651 17.6149L17.1343 18.7733C16.337 20.2371 16.0723 21.9108 16.3886 23.4859C16.5184 24.1321 16.739 24.7485 17.0446 25.3256L16.3204 25.045L16.2345 26.255C16.1474 27.4841 16.5567 28.919 17.3295 30.0928C17.547 30.4234 17.8272 30.7864 18.1823 31.1446L17.808 31.0871L18.2647 32.4736C18.8649 34.2953 20.1116 35.7047 21.7295 36.4882C20.1137 37.1739 18.8084 37.6114 16.6629 38.3171L14.7 38.9624L16.513 39.9537C17.2043 40.3316 19.647 41.594 22.0605 41.9726C27.4254 42.814 33.4657 42.1288 37.5321 38.4665C40.9572 35.3818 42.0811 30.994 41.8476 26.4277C41.8123 25.7365 42.0017 25.0767 42.3808 24.5703C43.1403 23.5564 45.2953 20.6015 45.3 20.5948ZM40.9471 23.4964C40.3175 24.3371 40.0021 25.4108 40.0586 26.5193C40.2942 31.1252 39.0409 34.6971 36.3335 37.1354C33.1708 39.9838 28.0695 41.1018 22.3381 40.2028C21.3001 40.0401 20.2274 39.6756 19.3395 39.3117C21.1383 38.6928 22.5274 38.1411 24.7707 37.0793L27.9024 35.5971L24.4448 35.3758C22.7887 35.2698 21.4096 34.4671 20.5619 33.164C21.012 33.1378 21.446 33.065 21.8782 32.9445L25.1758 32.0261L21.8506 31.2118C20.2349 30.8161 19.3139 29.8493 18.8257 29.1079C18.5052 28.6206 18.2957 28.1215 18.1701 27.6613C18.5035 27.7508 18.8922 27.8145 19.5191 27.8766L22.5968 28.181L20.1583 26.2788C18.4013 24.9084 17.6971 22.8495 18.2133 20.8702C23.6968 26.5578 30.1352 26.1303 30.7833 26.2807C30.6406 24.8951 30.6369 24.8918 30.5995 24.7599C29.7696 21.826 31.5885 20.3363 32.4088 19.832C34.1224 18.7789 36.8425 18.6202 38.7265 20.3552C39.1334 20.7297 39.6837 20.877 40.1987 20.7491C40.6609 20.6342 41.0403 20.5126 41.4117 20.3802L40.6385 22.5883L41.6256 22.589C41.4393 22.8388 41.2159 23.1378 40.9471 23.4964Z" fill="white"/>
</svg>
