<svg width="25" height="25" viewBox="0 0 25 25" fill="none" xmlns="http://www.w3.org/2000/svg">
<path d="M21.3912 13.3457H19.4578C19.6548 13.8853 19.7625 14.4676 19.7625 15.0744V22.3816C19.7625 22.6346 19.7185 22.8775 19.6383 23.1034H22.8347C24.0287 23.1034 25 22.132 25 20.938V16.9546C25.0001 14.9647 23.3811 13.3457 21.3912 13.3457Z" fill="white"/>
<path d="M5.23756 15.0745C5.23756 14.4675 5.34522 13.8853 5.5423 13.3458H3.60889C1.61895 13.3458 0 14.9647 0 16.9547V20.9381C0 22.1321 0.97134 23.1034 2.16534 23.1034H5.36173C5.2816 22.8775 5.23756 22.6346 5.23756 22.3816V15.0745Z" fill="white"/>
<path d="M14.7101 11.4656H10.29C8.3001 11.4656 6.68115 13.0846 6.68115 15.0745V22.3816C6.68115 22.7802 7.0043 23.1034 7.40293 23.1034H17.5972C17.9958 23.1034 18.319 22.7803 18.319 22.3816V15.0745C18.319 13.0846 16.7 11.4656 14.7101 11.4656Z" fill="white"/>
<path d="M12.5001 1.89645C10.1069 1.89645 8.15991 3.84343 8.15991 6.23665C8.15991 7.85994 9.05586 9.27767 10.379 10.022C11.0066 10.375 11.7301 10.5768 12.5001 10.5768C13.27 10.5768 13.9935 10.375 14.6211 10.022C15.9443 9.27767 16.8402 7.85989 16.8402 6.23665C16.8402 3.84348 14.8932 1.89645 12.5001 1.89645Z" fill="white"/>
<path d="M4.87885 5.94186C3.08905 5.94186 1.633 7.39792 1.633 9.18772C1.633 10.9775 3.08905 12.4336 4.87885 12.4336C5.33286 12.4336 5.76518 12.3395 6.15791 12.1705C6.83691 11.8782 7.39678 11.3607 7.74321 10.7125C7.98638 10.2575 8.12471 9.73855 8.12471 9.18772C8.12471 7.39797 6.66865 5.94186 4.87885 5.94186Z" fill="white"/>
<path d="M20.1212 5.94186C18.3314 5.94186 16.8754 7.39792 16.8754 9.18772C16.8754 9.7386 17.0137 10.2576 17.2569 10.7125C17.6033 11.3607 18.1632 11.8782 18.8422 12.1705C19.2349 12.3395 19.6672 12.4336 20.1212 12.4336C21.911 12.4336 23.3671 10.9775 23.3671 9.18772C23.3671 7.39792 21.911 5.94186 20.1212 5.94186Z" fill="white"/>
</svg>
