<svg width="25" height="25" viewBox="0 0 25 25" fill="none" xmlns="http://www.w3.org/2000/svg">
<path d="M24.2676 0.00994873H0.732422C0.32793 0.00994873 0 0.337878 0 0.742371V24.2576C0 24.6621 0.32793 24.99 0.732422 24.99H24.2676C24.6721 24.99 25 24.6621 25 24.2576V0.742371C25 0.337878 24.6721 0.00994873 24.2676 0.00994873ZM23.5352 1.47479V4.95658H1.46484V1.47479H23.5352ZM1.46484 23.5252V6.44135H23.5352V23.5252H1.46484Z" fill="white"/>
<path d="M16.4094 20.7143H15.9883C15.5838 20.7143 15.2559 20.3864 15.2559 19.9819C15.2559 19.5774 15.5838 19.2494 15.9883 19.2494H16.4094C16.9095 19.2494 17.3668 18.9623 17.5746 18.5179C17.9225 17.7737 18.1535 16.9009 18.2809 15.8497C18.3043 15.6559 18.4042 15.4795 18.5583 15.3597C18.6858 15.2604 18.8312 15.1455 18.9772 15.0293C18.7611 14.8666 18.5439 14.6743 18.3639 14.4171C18.2911 14.313 18.2465 14.1918 18.2347 14.0654C18.136 13.0132 17.9261 12.1514 17.5928 11.4305C17.3868 10.9849 16.9291 10.6971 16.4267 10.6971H15.9883C15.5838 10.6971 15.2559 10.3691 15.2559 9.96463C15.2559 9.56014 15.5838 9.23221 15.9883 9.23221H16.4267C17.498 9.23221 18.4776 9.85379 18.9224 10.8158C19.301 11.6347 19.5462 12.5802 19.6697 13.6997C19.7866 13.8144 19.9444 13.9233 20.1091 14.0368C20.2972 14.1664 20.4917 14.3005 20.6765 14.4728C20.8328 14.6186 20.9176 14.8255 20.9087 15.0391C20.8998 15.2527 20.7979 15.4517 20.63 15.5839C20.5615 15.6378 20.4474 15.7293 20.311 15.8384C20.1227 15.9892 19.9014 16.1665 19.695 16.3296C19.5413 17.4054 19.2808 18.3267 18.9015 19.1381C18.4541 20.0956 17.4758 20.7143 16.4094 20.7143Z" fill="white"/>
<path d="M9.01178 20.7152H8.59069C7.52428 20.7152 6.54601 20.0966 6.09845 19.1391C5.71916 18.3277 5.45866 17.4064 5.305 16.3306C5.09855 16.1675 4.87731 15.9903 4.68893 15.8394C4.55261 15.7303 4.43845 15.6388 4.36999 15.5849C4.20202 15.4527 4.10021 15.2537 4.09128 15.0401C4.08234 14.8265 4.16716 14.6197 4.32346 14.4738C4.50822 14.3015 4.70275 14.1674 4.89089 14.0378C5.05553 13.9243 5.21335 13.8154 5.33024 13.7007C5.45378 12.5812 5.69899 11.6357 6.0776 10.8168C6.52233 9.8548 7.50192 9.23322 8.57325 9.23322H9.01168C9.41617 9.23322 9.7441 9.56114 9.7441 9.96564C9.7441 10.3701 9.41617 10.6981 9.01168 10.6981H8.57325C8.07086 10.6981 7.6132 10.9859 7.40719 11.4315C7.07389 12.1524 6.86398 13.0142 6.7653 14.0664C6.75343 14.1928 6.7089 14.314 6.6361 14.4181C6.45602 14.6754 6.23888 14.8676 6.02272 15.0303C6.16877 15.1465 6.31408 15.2614 6.44167 15.3607C6.59577 15.4805 6.69562 15.6569 6.71911 15.8507C6.8465 16.9019 7.07755 17.7747 7.4254 18.5189C7.63312 18.9633 8.09049 19.2505 8.59059 19.2505H9.01168C9.41617 19.2505 9.7441 19.5784 9.7441 19.9829C9.7441 20.3874 9.41627 20.7152 9.01178 20.7152Z" fill="white"/>
<path d="M21.7398 3.96776C22.1373 3.96776 22.5182 3.62181 22.4998 3.21566C22.4813 2.80819 22.1659 2.46356 21.7398 2.46356C21.3423 2.46356 20.9615 2.80951 20.9799 3.21566C20.9983 3.62318 21.3138 3.96776 21.7398 3.96776Z" fill="white"/>
<path d="M18.9828 3.96776C19.3803 3.96776 19.7611 3.62181 19.7428 3.21566C19.7243 2.80819 19.4089 2.46356 18.9828 2.46356C18.5853 2.46356 18.2045 2.80951 18.2229 3.21566C18.2413 3.62318 18.5568 3.96776 18.9828 3.96776Z" fill="white"/>
<path d="M15.4297 15.7057C15.8128 15.7057 16.1798 15.3689 16.1621 14.9733C16.1443 14.5765 15.8403 14.2409 15.4297 14.2409C15.0466 14.2409 14.6795 14.5777 14.6973 14.9733C14.715 15.3701 15.0191 15.7057 15.4297 15.7057Z" fill="white"/>
<path d="M12.4982 15.7057C12.8813 15.7057 13.2483 15.3689 13.2306 14.9733C13.2128 14.5765 12.9088 14.2409 12.4982 14.2409C12.1151 14.2409 11.748 14.5777 11.7658 14.9733C11.7835 15.3701 12.0876 15.7057 12.4982 15.7057Z" fill="white"/>
<path d="M9.57032 15.7057C9.95342 15.7057 10.3205 15.3689 10.3027 14.9733C10.285 14.5765 9.98091 14.2409 9.57032 14.2409C9.18721 14.2409 8.82017 14.5777 8.8379 14.9733C8.85567 15.3701 9.15972 15.7057 9.57032 15.7057Z" fill="white"/>
</svg>
