<svg width="65" height="70" viewBox="0 0 65 70" fill="none" xmlns="http://www.w3.org/2000/svg">
<path d="M27.7006 25.0685V70C39.1385 54.1545 57.2174 52.2993 57.2174 32.872C57.2174 21.0463 57.2174 0 57.2174 0C57.2174 0 27.7006 2.6027 27.7006 25.0685Z" fill="white"/>
<path d="M45.8552 17.3979V46.4518C53.2515 36.2061 64.942 35.0068 64.942 22.4427C64.942 14.7975 64.942 1.18774 64.942 1.18774C64.942 1.18774 45.8552 2.8709 45.8552 17.3979Z" fill="#6444C6"/>
<path d="M23.2901 34.5459V69.9999C14.2646 57.4978 0 56.0325 0 40.7029C0 31.3722 0 14.7654 0 14.7654C0 14.7654 23.2901 16.8177 23.2901 34.5459Z" fill="white"/>
</svg>
