<svg width="234" height="70" viewBox="0 0 234 70" fill="none" xmlns="http://www.w3.org/2000/svg">
<path d="M100.34 31.675V34.93H93.865V56H89.875V34.93H83.365V31.675H100.34ZM103.051 46.27C103.051 44.3333 103.448 42.6183 104.241 41.125C105.058 39.6317 106.154 38.4767 107.531 37.66C108.931 36.82 110.471 36.4 112.151 36.4C113.668 36.4 114.986 36.7033 116.106 37.31C117.249 37.8933 118.159 38.6283 118.836 39.515V36.715H122.861V56H118.836V53.13C118.159 54.04 117.238 54.7983 116.071 55.405C114.904 56.0117 113.574 56.315 112.081 56.315C110.424 56.315 108.908 55.895 107.531 55.055C106.154 54.1917 105.058 53.0017 104.241 51.485C103.448 49.945 103.051 48.2067 103.051 46.27ZM118.836 46.34C118.836 45.01 118.556 43.855 117.996 42.875C117.459 41.895 116.748 41.1483 115.861 40.635C114.974 40.1217 114.018 39.865 112.991 39.865C111.964 39.865 111.008 40.1217 110.121 40.635C109.234 41.125 108.511 41.86 107.951 42.84C107.414 43.7967 107.146 44.94 107.146 46.27C107.146 47.6 107.414 48.7667 107.951 49.77C108.511 50.7733 109.234 51.5433 110.121 52.08C111.031 52.5933 111.988 52.85 112.991 52.85C114.018 52.85 114.974 52.5933 115.861 52.08C116.748 51.5667 117.459 50.82 117.996 49.84C118.556 48.8367 118.836 47.67 118.836 46.34ZM151.447 36.4C152.963 36.4 154.317 36.715 155.507 37.345C156.72 37.975 157.665 38.9083 158.342 40.145C159.042 41.3817 159.392 42.875 159.392 44.625V56H155.437V45.22C155.437 43.4933 155.005 42.175 154.142 41.265C153.278 40.3317 152.1 39.865 150.607 39.865C149.113 39.865 147.923 40.3317 147.037 41.265C146.173 42.175 145.742 43.4933 145.742 45.22V56H141.787V45.22C141.787 43.4933 141.355 42.175 140.492 41.265C139.628 40.3317 138.45 39.865 136.957 39.865C135.463 39.865 134.273 40.3317 133.387 41.265C132.523 42.175 132.092 43.4933 132.092 45.22V56H128.102V36.715H132.092V38.92C132.745 38.1267 133.573 37.5083 134.577 37.065C135.58 36.6217 136.653 36.4 137.797 36.4C139.337 36.4 140.713 36.7267 141.927 37.38C143.14 38.0333 144.073 38.9783 144.727 40.215C145.31 39.0483 146.22 38.1267 147.457 37.45C148.693 36.75 150.023 36.4 151.447 36.4ZM181.934 36.715V56H177.944V53.725C177.314 54.5183 176.485 55.1483 175.459 55.615C174.455 56.0583 173.382 56.28 172.239 56.28C170.722 56.28 169.357 55.965 168.144 55.335C166.954 54.705 166.009 53.7717 165.309 52.535C164.632 51.2983 164.294 49.805 164.294 48.055V36.715H168.249V47.46C168.249 49.1867 168.68 50.5167 169.544 51.45C170.407 52.36 171.585 52.815 173.079 52.815C174.572 52.815 175.75 52.36 176.614 51.45C177.5 50.5167 177.944 49.1867 177.944 47.46V36.715H181.934ZM194.198 56.315C192.682 56.315 191.317 56.0467 190.103 55.51C188.913 54.95 187.968 54.2033 187.268 53.27C186.568 52.3133 186.195 51.2517 186.148 50.085H190.278C190.348 50.9017 190.733 51.59 191.433 52.15C192.157 52.6867 193.055 52.955 194.128 52.955C195.248 52.955 196.112 52.745 196.718 52.325C197.348 51.8817 197.663 51.3217 197.663 50.645C197.663 49.9217 197.313 49.385 196.613 49.035C195.937 48.685 194.852 48.3 193.358 47.88C191.912 47.4833 190.733 47.0983 189.823 46.725C188.913 46.3517 188.12 45.78 187.443 45.01C186.79 44.24 186.463 43.225 186.463 41.965C186.463 40.9383 186.767 40.005 187.373 39.165C187.98 38.3017 188.843 37.625 189.963 37.135C191.107 36.645 192.413 36.4 193.883 36.4C196.077 36.4 197.838 36.96 199.168 38.08C200.522 39.1767 201.245 40.6817 201.338 42.595H197.348C197.278 41.7317 196.928 41.0433 196.298 40.53C195.668 40.0167 194.817 39.76 193.743 39.76C192.693 39.76 191.888 39.9583 191.328 40.355C190.768 40.7517 190.488 41.2767 190.488 41.93C190.488 42.4433 190.675 42.875 191.048 43.225C191.422 43.575 191.877 43.855 192.413 44.065C192.95 44.2517 193.743 44.4967 194.793 44.8C196.193 45.1733 197.337 45.5583 198.223 45.955C199.133 46.3283 199.915 46.8883 200.568 47.635C201.222 48.3817 201.56 49.3733 201.583 50.61C201.583 51.7067 201.28 52.6867 200.673 53.55C200.067 54.4133 199.203 55.09 198.083 55.58C196.987 56.07 195.692 56.315 194.198 56.315ZM215.625 36.4C217.141 36.4 218.495 36.715 219.685 37.345C220.898 37.975 221.843 38.9083 222.52 40.145C223.196 41.3817 223.535 42.875 223.535 44.625V56H219.58V45.22C219.58 43.4933 219.148 42.175 218.285 41.265C217.421 40.3317 216.243 39.865 214.75 39.865C213.256 39.865 212.066 40.3317 211.18 41.265C210.316 42.175 209.885 43.4933 209.885 45.22V56H205.895V36.715H209.885V38.92C210.538 38.1267 211.366 37.5083 212.37 37.065C213.396 36.6217 214.481 36.4 215.625 36.4ZM230.654 34.16C229.931 34.16 229.324 33.915 228.834 33.425C228.344 32.935 228.099 32.3283 228.099 31.605C228.099 30.8817 228.344 30.275 228.834 29.785C229.324 29.295 229.931 29.05 230.654 29.05C231.354 29.05 231.949 29.295 232.439 29.785C232.929 30.275 233.174 30.8817 233.174 31.605C233.174 32.3283 232.929 32.935 232.439 33.425C231.949 33.915 231.354 34.16 230.654 34.16ZM232.614 36.715V56H228.624V36.715H232.614Z" fill="black"/>
<path d="M27.7006 25.0685V70C39.1385 54.1545 57.2174 52.2993 57.2174 32.872C57.2174 21.0463 57.2174 0 57.2174 0C57.2174 0 27.7006 2.6027 27.7006 25.0685Z" fill="#250F64"/>
<path d="M45.8552 17.3979V46.4518C53.2515 36.2062 64.942 35.0068 64.942 22.4428C64.942 14.7975 64.942 1.18781 64.942 1.18781C64.942 1.18781 45.8552 2.87096 45.8552 17.3979Z" fill="#6444C6"/>
<path d="M23.2901 34.546V70C14.2646 57.4979 0 56.0326 0 40.703C0 31.3723 0 14.7654 0 14.7654C0 14.7654 23.2901 16.8178 23.2901 34.546Z" fill="#6444C6"/>
</svg>
